<?xml version="1.0" encoding="iso-8859-1"?>
<!-- Generator: Adobe Illustrator 21.1.0, SVG Export Plug-In . SVG Version: 6.00 Build 0)  -->
<svg version="1.1" id="Layer_1" xmlns="http://www.w3.org/2000/svg" xmlns:xlink="http://www.w3.org/1999/xlink" x="0px" y="0px"
	 viewBox="0 0 100 100" style="enable-background:new 0 0 100 100;" xml:space="preserve">
<g>
	<path d="M85.748,16.001H46.753c-0.829,0-1.5,0.671-1.5,1.5v19.745L13.744,48.59c-0.595,0.214-0.992,0.779-0.992,1.411v32.494
		c0,0.828,0.671,1.5,1.5,1.5l32.501,0.004h38.995c0.828,0,1.5-0.672,1.5-1.5V17.501C87.248,16.672,86.576,16.001,85.748,16.001z
		 M15.752,51.056l29.501-10.622v40.565l-29.501-0.004V51.056z M84.248,80.999H48.253V19.001h35.995V80.999z"/>
	<path d="M59.746,44.998h12.999c0.828,0,1.5-0.671,1.5-1.5V30.5c0-0.829-0.672-1.5-1.5-1.5H59.746c-0.828,0-1.5,0.671-1.5,1.5
		v12.998C58.246,44.327,58.918,44.998,59.746,44.998z M61.246,32h9.999v9.998h-9.999V32z"/>
	<path d="M72.749,54.999H59.753c-0.828,0-1.5,0.672-1.5,1.5v12.998c0,0.828,0.672,1.5,1.5,1.5h12.996c0.828,0,1.5-0.672,1.5-1.5
		V56.499C74.249,55.671,73.577,54.999,72.749,54.999z M71.249,67.997h-9.996v-9.998h9.996V67.997z"/>
</g>
</svg>
