<?xml version="1.0" encoding="iso-8859-1"?>
<!-- Generator: Adobe Illustrator 21.1.0, SVG Export Plug-In . SVG Version: 6.00 Build 0)  -->
<svg version="1.1" id="Layer_1" xmlns="http://www.w3.org/2000/svg" xmlns:xlink="http://www.w3.org/1999/xlink" x="0px" y="0px"
	 viewBox="0 0 100.353 100.352" style="enable-background:new 0 0 100.353 100.352;" xml:space="preserve">
<g>
	<path d="M92.345,44.125L50.53,8.39c-0.565-0.483-1.4-0.48-1.959,0.008L7.646,44.005c-0.625,0.544-0.691,1.491-0.147,2.116
		c0.544,0.625,1.492,0.69,2.116,0.147l8.818-7.672v47.872c0,0.828,0.671,1.5,1.5,1.5h58.605c0.828,0,1.5-0.672,1.5-1.5V37.554
		l10.357,8.851c0.283,0.242,0.629,0.36,0.974,0.36c0.424,0,0.845-0.178,1.142-0.525C93.049,45.61,92.975,44.663,92.345,44.125z
		 M77.038,84.969H21.433V35.986l28.131-24.476L77.038,34.99V84.969z"/>
	<path d="M33.45,41.326v28.78c0,0.828,0.671,1.5,1.5,1.5h28.778c0.828,0,1.5-0.672,1.5-1.5v-28.78c0-0.829-0.672-1.5-1.5-1.5H34.95
		C34.122,39.826,33.45,40.497,33.45,41.326z M50.949,68.606V57.217h11.279v11.389H50.949z M62.229,54.217H50.949V42.826h11.279
		V54.217z M36.45,42.826h11.499v12.335c-0.069,0.172-0.109,0.359-0.109,0.556s0.04,0.384,0.109,0.556v12.332H36.45V42.826z"/>
</g>
</svg>
